<svg width="314" height="31" viewBox="0 0 314 31" fill="none" xmlns="http://www.w3.org/2000/svg">
<g clip-path="url(#clip0_84_11)">
<mask id="mask0_84_11" style="mask-type:luminance" maskUnits="userSpaceOnUse" x="-1" y="0" width="316" height="32">
<path d="M-0.370636 0.318954H314.238V31.185H-0.370636V0.318954Z" fill="white"/>
</mask>
<g mask="url(#mask0_84_11)">
<path fill-rule="evenodd" clip-rule="evenodd" d="M-0.370636 0.344925V30.6655L27.2384 0.344925H-0.370636ZM58.6759 0.344925H38.6509L13.4313 30.6655H33.4511L58.6759 0.344925ZM313.832 30.6655V0.344925L289.548 30.6655H313.832ZM88.9861 0.344925H68.9611L43.7467 30.6655H63.7613L88.9861 0.344925ZM210.222 0.344925H190.197L164.988 30.6655H185.007L210.222 0.344925ZM270.837 0.344925H250.817L225.603 30.6655H245.628L270.837 0.344925ZM149.601 0.344925H129.576L104.367 30.6655H124.392L149.601 0.344925ZM119.291 0.344925H99.2713L74.0569 30.6655H94.0716L119.291 0.344925ZM179.912 0.344925H159.887L134.677 30.6655H154.702L179.912 0.344925ZM240.532 0.344925H220.507L195.293 30.6655H215.318L240.532 0.344925ZM301.147 0.344925H281.122L255.913 30.6655H275.938L301.147 0.344925Z" fill="#505BBC"/>
</g>
</g>
<defs>
<clipPath id="clip0_84_11">
<rect width="314" height="31" fill="white"/>
</clipPath>
</defs>
</svg>
