<svg width="656" height="196" viewBox="0 0 656 196" fill="none" xmlns="http://www.w3.org/2000/svg">
<mask id="mask0_61_21" style="mask-type:luminance" maskUnits="userSpaceOnUse" x="34" y="5" width="604" height="180">
<path d="M637.47 5.9538L34.6006 5.9538V184.318L637.47 184.318V5.9538Z" fill="white"/>
</mask>
<g mask="url(#mask0_61_21)">
<path d="M317.633 18.0941L303.414 18.0941L323.806 37.713L338.024 37.713L317.633 18.0941ZM297.91 18.0941H283.692L304.083 37.713H318.301L297.91 18.0941ZM278.196 18.0941L263.969 18.0941L284.361 37.713H298.588L278.196 18.0941ZM258.474 18.0941L244.237 18.0941L264.629 37.713H278.847L258.474 18.0941ZM398.584 18.0941H384.366L404.758 37.713H418.976L398.584 18.0941ZM378.861 18.0941L364.643 18.0941L385.035 37.713H399.253L378.861 18.0941ZM359.157 18.0941H344.939L365.33 37.713H379.548L359.157 18.0941ZM339.425 18.0941H325.198L345.59 37.713H359.817L339.425 18.0941ZM636.666 6.81674L219.778 6.81674L175.506 31.3764L34.6819 31.3764V45.7247H34.5644L34.6819 53.821C34.6819 97.2298 34.6638 140.655 34.6638 184.081H38.5144V49.3118L445.287 49.3118L477.457 19.2023L636.666 19.2023V15.6068L475.884 15.6068L443.715 45.7247L38.5144 45.7247V34.9719L176.546 34.9719L220.818 10.4123L636.657 10.4123V6.81674H636.666Z" fill="#8CA6DA"/>
</g>
</svg>
