<svg width="105" height="113" viewBox="0 0 105 113" fill="none" xmlns="http://www.w3.org/2000/svg">
<g clip-path="url(#clip0_65_27)">
<mask id="mask0_65_27" style="mask-type:luminance" maskUnits="userSpaceOnUse" x="5" y="-15" width="93" height="128">
<path d="M5 -15H97.4993V112.649H5V-15Z" fill="white"/>
</mask>
<g mask="url(#mask0_65_27)">
<path d="M89.3272 -15L69.2779 18.4573C69.2779 18.4573 61.1266 31.1931 57.9118 35.0593C55.4112 38.0668 50.4161 43.3823 47.1489 45.5311C43.9425 47.6401 35.2425 50.7104 31.4894 51.4958C25.2126 52.809 5 51.9168 5 51.9168C5 51.9168 29.1772 52.8676 35.4373 57.4082C37.1023 58.6166 38.4385 62.9771 38.5474 65.0316C38.6563 67.1344 37.0793 71.2037 36.2017 73.1159C31.5627 83.2379 16.0268 112.831 16.0268 112.831C16.0268 112.831 35.9651 80.2827 44.1205 70.5607C45.9342 68.3973 50.0119 64.4347 52.2927 62.7718C54.6614 61.0419 59.5726 57.6218 62.3791 56.7694C70.811 54.2122 97.4993 52.5472 97.4993 52.5472C97.4993 52.5472 78.0867 52.2477 71.7052 51.278C69.6821 50.9701 66.9029 50.723 65.4997 49.2339C64.442 48.1155 63.3257 45.6567 62.9822 44.1739C62.666 42.8294 62.4482 40.9884 62.8608 38.3977C63.1833 36.3494 64.0546 33.7692 65.1771 31.1806C72.5409 14.2246 89.3272 -15 89.3272 -15Z" fill="#505BBC"/>
</g>
</g>
<defs>
<clipPath id="clip0_65_27">
<rect width="105" height="113" fill="white"/>
</clipPath>
</defs>
</svg>
