<svg width="351" height="143" viewBox="0 0 351 143" fill="none" xmlns="http://www.w3.org/2000/svg">
<mask id="mask0_139_67" style="mask-type:luminance" maskUnits="userSpaceOnUse" x="0" y="0" width="351" height="143">
<path d="M350.522 142.285L0.0483126 142.652L0.0227076 0.366949L350.496 -4.57764e-05L350.522 142.285Z" fill="white"/>
</mask>
<g mask="url(#mask0_139_67)">
<path d="M319.746 106.48L328.193 106.471L316.538 123.115L308.092 123.124L319.746 106.48ZM331.46 106.468L339.912 106.459L328.248 123.11L319.796 123.118L331.46 106.468ZM0.126224 142.645L0.124385 132.425L204.336 132.211L219.262 142.415L0.126224 142.645ZM350.48 -0.395831L350.495 82.5177L350.538 86.4933L350.496 86.4934L350.506 141.792L231.673 141.917L200.339 125.297L0.12314 125.507L0.122593 122.468L200.754 122.258L232.088 138.87L348.225 138.749L348.215 86.4958L314.371 86.5312L295.269 112.071L86.9638 112.289L86.9632 109.243L294.312 109.026L313.42 83.4932L348.215 83.4568L348.215 81.5001L348.188 78.9815L348.214 78.9815L348.2 -0.393442L350.48 -0.395831Z" fill="#3442BF"/>
</g>
</svg>
