<svg width="272" height="87" viewBox="0 0 272 87" fill="none" xmlns="http://www.w3.org/2000/svg">
<g clip-path="url(#clip0_134_74)">
<mask id="mask0_134_74" style="mask-type:luminance" maskUnits="userSpaceOnUse" x="46" y="-1" width="227" height="78">
<path d="M46.6549 -0.00634766H272.302V76.0108H46.6549V-0.00634766Z" fill="white"/>
</mask>
<g mask="url(#mask0_134_74)">
<path d="M124.05 1.68868L115.078 29.1096C115.028 29.2725 115.015 29.4353 115.04 29.6023C115.065 29.7693 115.128 29.9196 115.224 30.0574C115.32 30.1951 115.445 30.2995 115.591 30.3788C115.742 30.4582 115.9 30.4999 116.067 30.5041L270.97 32.0405C271.112 32.0405 271.245 32.0655 271.375 32.1198C271.504 32.174 271.621 32.2534 271.721 32.3494C271.822 32.4496 271.897 32.5665 271.951 32.6959C272.005 32.8253 272.03 32.9631 272.03 33.1009C272.03 33.2428 272.005 33.3764 271.951 33.51C271.897 33.6395 271.822 33.7522 271.721 33.8524C271.621 33.9526 271.504 34.0277 271.375 34.082C271.245 34.1363 271.112 34.1655 270.97 34.1655L107.793 50.4185C107.396 50.4686 107.116 50.6732 106.953 51.0406L96.8125 75.2427C96.7416 75.3971 96.6414 75.5307 96.5119 75.6393C96.3783 75.7478 96.2281 75.8188 96.0611 75.8564C95.8941 75.894 95.7312 75.8898 95.5642 75.8439C95.4014 75.8021 95.2553 75.7228 95.1259 75.6059L80.739 62.3171C80.5929 62.1751 80.4218 62.0833 80.2214 62.0457C80.021 62.004 79.8289 62.0207 79.641 62.1L48.1161 74.7291C47.8865 74.8085 47.6569 74.8126 47.4273 74.7333C47.1935 74.6582 47.0098 74.5162 46.8762 74.3117C46.7426 74.1071 46.6841 73.8858 46.705 73.6437C46.7259 73.3973 46.8177 73.1886 46.9847 73.0091L68.6944 51.0406C68.8781 50.8402 68.9699 50.6022 68.9699 50.3267C68.9699 50.0553 68.8781 49.8173 68.6944 49.6127L54.9296 33.247C54.6332 32.9088 54.5789 32.5373 54.7584 32.1281C54.9338 31.719 55.2511 31.5061 55.6978 31.4894L89.7068 30.5375C90.0617 30.5375 90.3539 30.4039 90.5877 30.1367L122.33 0.590675C122.505 0.436203 122.714 0.348528 122.948 0.327654C123.186 0.310954 123.403 0.365228 123.603 0.490476C123.803 0.619899 123.945 0.795247 124.025 1.01652C124.108 1.23779 124.117 1.46324 124.05 1.68868Z" fill="#5E17EB"/>
</g>
</g>
<defs>
<clipPath id="clip0_134_74">
<rect width="272" height="87" fill="white"/>
</clipPath>
</defs>
</svg>
